# xmcd
#
# Track frame offsets:
#	150
#	27890
#	54467
#	67217
#	85292
#	104919
#	120694
#	133199
#	146804
#	175316
#	199741
#	223278
#	247613
#	262648
#	290743
#	312395
#	329120
#
# Disc length: 4755 seconds
#
# Revision: 2
# Processed by: cddbd v1.5.2PL0 Copyright (c) Steve Scherf et al.
# Submitted via: EZCDAudioConverter 2.4.0.1
#
DISCID=17129111
DTITLE=Various Artist - Trail Of The Wolf - vol.07 - Good Whiskey Blues  CD2
DYEAR=2017
DGENRE=Blues
TTITLE0=Chriss Cobb Band - Bad Brain
TTITLE1=Sonny Kenn Band - Fade To Black
TTITLE2=Cold Blue Steel - The Girl That Radiates
TTITLE3=Beat Daddys - Livin' This Love
TTITLE4=Terry Evans - Walking In The Same Tracks
TTITLE5=Dean Hall - I Know Something About The Blues
TTITLE6=Chip Vandiver - Love Ain't Never Satisfied
TTITLE7=Smokehouse - Peepin' Through The Knothole
TTITLE8=Metro Blues All Stars - Devil Gets His Due
TTITLE9=T.C. Carr and The Catch - Woman's Lookin' For A Man
TTITLE10=David Denny - Without You
TTITLE11=Goodman Murphy Band - Same Of Blues
TTITLE12=Buddy Flett and the Bluebirds - Third House On The Left
TTITLE13=Son Phillips And The Hounds - April Fool
TTITLE14=George Whitsell - Warm Heart
TTITLE15=Danny Rhodes and The Messengers - River Road
TTITLE16=Blues Boyz - Murdered By Love
EXTD=
EXTT0=
EXTT1=
EXTT2=
EXTT3=
EXTT4=
EXTT5=
EXTT6=
EXTT7=
EXTT8=
EXTT9=
EXTT10=
EXTT11=
EXTT12=
EXTT13=
EXTT14=
EXTT15=
EXTT16=
PLAYORDER=
